<?xml version="1.0" encoding="UTF-8"?>
<svg id="Krutho" xmlns="http://www.w3.org/2000/svg" version="1.1" viewBox="0 0 2540 680">
  <!-- Generator: Adobe Illustrator 30.2.1, SVG Export Plug-In . SVG Version: 2.1.1 Build 1)  -->
  <path d="M600,200c-55.2,0-100,44.8-100,100v360h100v-370h160v-90h-160Z"/>
  <path d="M2340,190c-110.5,0-200,89.5-200,200v80c0,110.5,89.5,200,200,200s200-89.5,200-200v-80c0-110.5-89.5-200-200-200ZM2440,490c0,55.2-44.8,100-100,100s-100-44.8-100-100v-120c0-55.2,44.8-100,100-100s100,44.8,100,100v120Z"/>
  <path d="M1590,290v-90h-100V40h-100v160h-80v90h80v270c0,55.2,44.8,100,100,100h100v-90h-100v-280h100Z"/>
  <path d="M1895,190c-49,0-93.2,20.1-125,52.5V20h-100v640h100v-290c0-55.2,44.8-100,100-100s100,44.8,100,100v290h100v-295c0-96.6-78.4-175-175-175Z"/>
  <path d="M1140,200v290c0,55.2-44.8,100-100,100s-100-44.8-100-100V200h-100v295c0,96.6,78.4,175,175,175s93.2-20.1,125-52.5v42.5h100V200h-100Z"/>
  <polygon points="460 20 350 20 160.9 295 100 295 100 20 0 20 0 660 100 660 100 385 160.9 385 350 660 460 660 240 340 460 20"/>
</svg>